<svg width="221" height="256" viewBox="0 0 221 256" fill="none" xmlns="http://www.w3.org/2000/svg">
<path d="M0 24.381C0 10.9157 12.6313 0 28.2128 0H192.787C208.369 0 221 10.9157 221 24.381V231.619C221 245.084 208.369 256 192.787 256H28.2128C12.6313 256 0 245.084 0 231.619V24.381Z" fill="white"/>
<path d="M0 24.381C0 10.9157 12.6313 0 28.2128 0H192.787C208.369 0 221 10.9157 221 24.381V231.619C221 245.084 208.369 256 192.787 256H28.2128C12.6313 256 0 245.084 0 231.619V24.381Z" fill="white"/>
</svg>
