<svg width="55" height="56" viewBox="0 0 55 56" fill="none" xmlns="http://www.w3.org/2000/svg">
<g clip-path="url(#clip0_32_69)">
<g clip-path="url(#clip1_32_69)">
<path d="M40.9828 28.8161C42.991 26.2093 44.3051 23.0202 44.6338 19.538H45.6237C46.304 19.538 46.8564 18.8359 46.8564 18.1395C46.8564 17.4436 46.304 16.741 45.6237 16.741H44.682C44.1373 7.41645 36.5514 0 27.3003 0C18.0497 0 10.4638 7.41645 9.91915 16.741H9.14749C8.46717 16.741 7.91536 17.4436 7.91536 18.1395C7.91536 18.8359 8.46717 19.538 9.14749 19.538H9.96782C10.2965 23.0196 11.6107 26.2093 13.6183 28.8161C5.63813 33.628 0.269348 42.5061 0.269348 52.6474C0.269348 53.9463 1.29913 54.9996 2.56955 54.9996C3.83942 54.9996 4.86975 53.9463 4.86975 52.6474C4.86975 45.4569 8.12263 39.0312 13.1994 34.8217C14.274 40.3994 18.4402 44.8528 23.7909 46.2317C22.69 47.228 21.9911 48.679 21.9911 50.2974C21.9911 53.2935 24.3739 55.7319 27.303 55.7319C30.2321 55.7319 32.616 53.294 32.616 50.2974C32.616 48.6796 31.9176 47.2291 30.8168 46.2328C36.174 44.855 40.3435 40.4022 41.4105 34.8296C46.4818 39.039 49.7308 45.4614 49.7308 52.6474C49.7308 53.9463 50.7606 54.9996 52.0305 54.9996C53.3003 54.9996 54.3312 53.9463 54.3312 52.6474C54.3318 42.5061 48.9624 33.628 40.9828 28.8161ZM27.3003 3.3614C34.7379 3.3614 40.8477 9.27196 41.3864 16.741H40.6935C40.6011 16.741 40.5119 16.7561 40.4255 16.7801V16.0999C40.4255 15.2183 39.7272 14.5034 38.8647 14.5034H29.9549C29.0924 14.5034 28.394 15.2183 28.394 16.0999V16.741H26.2065V16.0999C26.2065 15.2183 25.5076 14.5034 24.6457 14.5034H15.7358C14.8739 14.5034 14.175 15.2183 14.175 16.0999V16.7533C14.1417 16.7505 14.1105 16.741 14.0766 16.741H13.2136C13.7534 9.2714 19.8626 3.3614 27.3003 3.3614ZM38.238 16.741V19.538H31.1285V16.741H38.238ZM23.4721 16.741V19.538H16.9094V16.741H23.4721ZM14.0766 19.538C14.1105 19.538 14.1417 19.529 14.175 19.5257V20.179C14.175 21.0606 14.8739 21.7755 15.7358 21.7755H24.6451C25.5076 21.7755 26.2065 21.0606 26.2065 20.179V19.538H28.394V20.179C28.394 21.0606 29.0924 21.7755 29.9549 21.7755H38.8653C39.7272 21.7755 40.4255 21.0606 40.4255 20.179V19.4988C40.5119 19.5229 40.6011 19.538 40.6935 19.538H41.3252C40.9828 22.4681 39.7813 25.1302 37.9853 27.2548C36.8019 28.6544 35.3614 29.8191 33.7388 30.6721C31.8066 31.6891 29.6185 32.267 27.3003 32.267C24.982 32.267 22.7939 31.6891 20.8618 30.6721C19.2392 29.8185 17.7992 28.6538 16.6158 27.2542C14.8187 25.1302 13.6172 22.4681 13.2748 19.538H14.0766ZM27.303 51.9789C26.3957 51.9789 25.6602 51.226 25.6602 50.2974C25.6602 49.3693 26.3957 48.6169 27.303 48.6169C28.2103 48.6169 28.9459 49.3693 28.9459 50.2974C28.9464 51.226 28.2103 51.9789 27.303 51.9789ZM27.303 43.3172C21.4256 43.3172 16.6152 38.6139 16.2483 32.6949C16.5244 32.5344 16.8039 32.38 17.0872 32.2312C19.9583 34.3647 23.4868 35.6284 27.2997 35.6284C31.1132 35.6284 34.6411 34.3653 37.5128 32.2312C37.7983 32.3816 38.081 32.5377 38.3594 32.6999C38.0099 38.6122 33.1919 43.3172 27.303 43.3172Z" fill="#0F3ED1"/>
</g>
</g>
<defs>
<clipPath id="clip0_32_69">
<rect width="54.0619" height="55.7319" fill="white" transform="translate(0.269348)"/>
</clipPath>
<clipPath id="clip1_32_69">
<rect width="54.0619" height="55.7319" fill="white" transform="translate(0.269348)"/>
</clipPath>
</defs>
</svg>
