<svg width="170" height="22" viewBox="0 0 170 22" fill="none" xmlns="http://www.w3.org/2000/svg">
<g clip-path="url(#clip0_32_60)">
<g clip-path="url(#clip1_32_60)">
<g clip-path="url(#clip2_32_60)">
<g clip-path="url(#clip3_32_60)">
<path d="M0.327263 20.8296C0.227684 20.524 0.227684 20.2185 0.327263 19.9129L2.39352 19.6073C2.45991 18.9622 2.4931 17.9691 2.4931 16.628V1.6297L0.476631 1.37506C0.410245 1.12042 0.410245 0.806361 0.476631 0.432888C0.725578 0.449864 1.11559 0.458352 1.64668 0.458352C2.70885 0.458352 4.08304 0.41082 5.76924 0.315754C7.45212 0.224083 8.41803 0.178248 8.66698 0.178248C11.9199 0.178248 14.3845 1.07798 16.0607 2.87744C17.7369 4.6769 18.5751 7.09598 18.5751 10.1347C18.5751 13.2243 17.7867 15.7877 16.2101 17.8248C14.6334 19.862 12.4261 20.8805 9.58808 20.8805C8.64209 20.8805 7.38905 20.8686 5.82899 20.8449C4.26892 20.8177 3.14866 20.8041 2.4682 20.8041C1.50561 20.8041 0.791963 20.8126 0.327263 20.8296ZM8.64209 19.6582C13.3223 19.6582 15.6624 16.5347 15.6624 10.2875C15.6624 7.58829 15.0533 5.45779 13.8351 3.896C12.6136 2.3342 10.8577 1.50238 8.5674 1.40052C8.36824 1.38355 8.06121 1.37506 7.6463 1.37506C6.76669 1.37506 5.97006 1.44296 5.25641 1.57877C5.19002 2.22386 5.15683 3.25091 5.15683 4.65992V19.5819C5.35599 19.5819 5.83397 19.5954 6.59076 19.6226C7.34424 19.6464 8.02802 19.6582 8.64209 19.6582ZM21.0396 14.0052C21.0396 12.9867 21.184 12.0309 21.4728 11.138C21.7649 10.2484 22.1848 9.47263 22.7325 8.81056C23.2802 8.1485 23.939 7.62564 24.7091 7.24198C25.4825 6.86171 26.3505 6.67158 27.3131 6.67158C28.2591 6.67158 29.1221 6.86171 29.9021 7.24198C30.6822 7.62564 31.3494 8.1485 31.9037 8.81056C32.4613 9.47263 32.8895 10.2484 33.1882 11.138C33.487 12.0309 33.6363 12.9867 33.6363 14.0052C33.6363 15.0577 33.482 16.0254 33.1733 16.9081C32.8679 17.7909 32.4364 18.5582 31.8788 19.2101C31.3245 19.8654 30.6573 20.3746 29.8772 20.7379C29.0972 21.1046 28.2425 21.2879 27.3131 21.2879C26.3339 21.2879 25.4576 21.1097 24.6842 20.7532C23.9141 20.3967 23.2586 19.8959 22.7175 19.2508C22.1798 18.6057 21.7649 17.8367 21.4728 16.9438C21.184 16.0542 21.0396 15.0747 21.0396 14.0052ZM24.6743 9.31984C23.9606 10.3554 23.6038 11.9172 23.6038 14.0052C23.6038 15.0408 23.6984 15.949 23.8876 16.7299C24.0801 17.5108 24.3423 18.1593 24.6743 18.6753C25.0062 19.1948 25.3962 19.5819 25.8443 19.8365C26.2924 20.0911 26.782 20.2185 27.3131 20.2185C27.8276 20.2185 28.3172 20.0911 28.7819 19.8365C29.2466 19.5819 29.6449 19.1948 29.9768 18.6753C30.3088 18.1593 30.5743 17.5108 30.7735 16.7299C30.9726 15.949 31.0722 15.0408 31.0722 14.0052C31.0722 12.9697 30.9726 12.0564 30.7735 11.2653C30.5743 10.4776 30.3038 9.82403 29.9619 9.30456C29.6233 8.78849 29.225 8.39804 28.7669 8.13322C28.3122 7.87179 27.8276 7.74107 27.3131 7.74107C26.2841 7.74107 25.4045 8.26733 24.6743 9.31984ZM46.6065 10.4403C46.2546 10.8137 45.4331 10.992 44.1419 10.975C43.8764 8.83603 43.1212 7.76654 41.8765 7.76654C40.8973 7.76654 40.0675 8.34372 39.387 9.49809C38.7032 10.6525 38.3614 12.1718 38.3614 14.0562C38.3614 15.9914 38.6617 17.4819 39.2625 18.5276C39.86 19.57 40.7546 20.0911 41.9462 20.0911C43.2075 20.0911 44.444 19.5649 45.6555 18.5124C45.9044 18.6652 46.097 18.9283 46.233 19.3018C45.0182 20.6259 43.498 21.2879 41.6723 21.2879C39.9297 21.2879 38.5041 20.6717 37.3954 19.4393C36.2802 18.2102 35.7225 16.3989 35.7225 14.0052C35.7225 11.7135 36.3416 9.9174 37.5797 8.61704C38.8144 7.32007 40.2285 6.67158 41.8217 6.67158C43.083 6.67158 44.195 6.99413 45.1576 7.63922C46.1235 8.28431 46.6065 9.21799 46.6065 10.4403ZM52.1779 4.12518V7.76654H55.688C55.7212 7.97025 55.7378 8.12303 55.7378 8.22489C55.7378 8.37767 55.7212 8.55592 55.688 8.75963L52.1779 9.29438V16.297C52.1779 17.5532 52.2908 18.4394 52.5165 18.9554C52.7389 19.4749 53.0907 19.7346 53.572 19.7346C54.0035 19.7346 54.6757 19.5564 55.5885 19.1999C55.7544 19.3527 55.8706 19.6413 55.937 20.0657C55.4391 20.3712 55.0624 20.5953 54.8068 20.7379C54.5479 20.8839 54.2242 21.0129 53.8359 21.125C53.4442 21.2336 53.0326 21.2879 52.6011 21.2879C51.7713 21.2879 51.0958 20.9603 50.5747 20.305C50.0502 19.6532 49.788 18.6567 49.788 17.3156V8.98881L48.0454 8.75963C48.0122 8.58987 47.9956 8.44558 47.9956 8.32675C47.9956 8.19094 48.0122 8.0042 48.0454 7.76654C48.5101 7.68166 48.9134 7.53227 49.2553 7.31837C49.5938 7.10787 49.8793 6.81079 50.1116 6.42713C50.344 6.04686 50.5232 5.70734 50.6494 5.40856C50.7722 5.11318 50.9249 4.68539 51.1074 4.12518C51.2568 4.07425 51.4394 4.04879 51.6551 4.04879C51.8543 4.04879 52.0285 4.07425 52.1779 4.12518ZM57.3809 14.0052C57.3809 12.9867 57.5269 12.0309 57.819 11.138C58.1078 10.2484 58.526 9.47263 59.0737 8.81056C59.6214 8.1485 60.2819 7.62564 61.0553 7.24198C61.8254 6.86171 62.6918 6.67158 63.6543 6.67158C64.6003 6.67158 65.4634 6.86171 66.2434 7.24198C67.0234 7.62564 67.6923 8.1485 68.2499 8.81056C68.8042 9.47263 69.2308 10.2484 69.5295 11.138C69.8282 12.0309 69.9776 12.9867 69.9776 14.0052C69.9776 15.0577 69.8232 16.0254 69.5146 16.9081C69.2092 17.7909 68.7777 18.5582 68.22 19.2101C67.6657 19.8654 66.9985 20.3746 66.2185 20.7379C65.4385 21.1046 64.5837 21.2879 63.6543 21.2879C62.6752 21.2879 61.7989 21.1097 61.0255 20.7532C60.2554 20.3967 59.6015 19.8959 59.0638 19.2508C58.5227 18.6057 58.1078 17.8367 57.819 16.9438C57.5269 16.0542 57.3809 15.0747 57.3809 14.0052ZM61.0155 9.31984C60.3019 10.3554 59.945 11.9172 59.945 14.0052C59.945 15.0408 60.0396 15.949 60.2288 16.7299C60.4214 17.5108 60.6836 18.1593 61.0155 18.6753C61.3474 19.1948 61.7375 19.5819 62.1856 19.8365C62.6337 20.0911 63.1233 20.2185 63.6543 20.2185C64.1688 20.2185 64.6584 20.0911 65.1231 19.8365C65.5878 19.5819 65.9862 19.1948 66.3181 18.6753C66.65 18.1593 66.9156 17.5108 67.1147 16.7299C67.3139 15.949 67.4134 15.0408 67.4134 14.0052C67.4134 12.9697 67.3139 12.0564 67.1147 11.2653C66.9156 10.4776 66.645 9.82403 66.3031 9.30456C65.9646 8.78849 65.5663 8.39804 65.1082 8.13322C64.6535 7.87179 64.1688 7.74107 63.6543 7.74107C62.6254 7.74107 61.7458 8.26733 61.0155 9.31984ZM76.3506 7.18086L76.3008 9.80366C76.7158 9.02276 77.2917 8.30468 78.0285 7.6494C78.7687 6.99752 79.4708 6.67158 80.1346 6.67158C80.6491 6.67158 81.1055 6.731 81.5038 6.84983C81.6366 7.07052 81.703 7.35911 81.703 7.71561C81.703 8.27582 81.5868 8.83603 81.3545 9.39624C80.757 9.22648 80.1844 9.14159 79.6367 9.14159C78.2758 9.14159 77.1556 9.82064 76.2759 11.1787L76.2262 15.6349V19.48L78.9895 19.862C79.0559 20.1336 79.0559 20.4731 78.9895 20.8805C77.9439 20.8296 76.7489 20.8041 75.4046 20.8041C74.3923 20.8041 73.189 20.8211 71.7949 20.8551C71.6953 20.5325 71.6953 20.2015 71.7949 19.862L73.7616 19.5819C73.828 18.6482 73.8612 17.5702 73.8612 16.3479V9.37077C73.8612 9.03125 73.8363 8.71719 73.7865 8.4286L71.8198 8.17396C71.7534 7.91932 71.7534 7.59678 71.8198 7.20633C72.965 7.12145 74.3923 6.9432 76.1017 6.67158C76.2511 6.84134 76.334 7.0111 76.3506 7.18086ZM91.2576 14.8965L92.0542 19.0216C93.0168 19.7007 94.3694 20.0402 96.112 20.0402C97.2904 20.0402 98.175 19.6922 98.7658 18.9962C99.3533 18.3002 99.6471 17.4683 99.6471 16.5007C99.6471 15.9914 99.6056 15.5619 99.5226 15.2122C99.4396 14.8659 99.262 14.4721 98.9899 14.0307C98.7144 13.5893 98.2779 13.1479 97.6804 12.7066C97.0829 12.2652 96.3029 11.7983 95.3403 11.306C94.2117 10.7289 93.2989 10.1856 92.6019 9.67634C91.9048 9.16706 91.382 8.6408 91.0335 8.09757C90.685 7.55434 90.4526 7.03657 90.3365 6.54426C90.2203 6.05196 90.1622 5.44082 90.1622 4.71085C90.1622 3.21696 90.7481 2.05749 91.9198 1.23246C93.0882 0.410819 94.469 0 96.0622 0C98.0372 0 99.9458 0.509281 101.788 1.52784V6.41694C101.224 6.5188 100.751 6.5188 100.369 6.41694L99.5724 2.01166C98.5102 1.4175 97.3236 1.12042 96.0125 1.12042C95.1328 1.12042 94.391 1.38864 93.7869 1.92508C93.1794 2.45813 92.8757 3.20847 92.8757 4.17611C92.8757 4.71934 92.9089 5.14374 92.9753 5.44931C93.0417 5.75488 93.2077 6.11477 93.4732 6.52898C93.7387 6.94659 94.1785 7.36251 94.7926 7.77672C95.4067 8.19433 96.2282 8.65778 97.2572 9.16706C100.809 10.9326 102.585 13.0376 102.585 15.4821C102.585 17.2137 101.937 18.6142 100.643 19.6837C99.3483 20.7532 97.6555 21.2879 95.5643 21.2879C93.4898 21.2879 91.5812 20.7872 89.8386 19.7856V14.8965C90.4029 14.7946 90.8758 14.7946 91.2576 14.8965ZM115.729 13.5978H107.912C107.763 17.9267 109.032 20.0911 111.721 20.0911C112.866 20.0911 114.036 19.5734 115.231 18.5378C115.48 18.6906 115.671 18.9537 115.804 19.3272C114.659 20.6344 113.206 21.2879 111.447 21.2879C107.398 21.2879 105.373 18.8519 105.373 13.9798C105.373 11.671 105.97 9.87496 107.165 8.59157C108.36 7.31158 109.754 6.67158 111.348 6.67158C113.09 6.67158 114.343 7.29121 115.107 8.53046C115.87 9.76971 116.252 11.3824 116.252 13.3686C116.086 13.5044 115.912 13.5808 115.729 13.5978ZM111.298 7.69014C110.435 7.69014 109.701 8.1485 109.097 9.0652C108.49 9.98191 108.12 11.1533 107.987 12.5792H111.074C112.302 12.5792 113.181 12.5029 113.713 12.3501C113.713 10.958 113.505 9.83252 113.09 8.97353C112.675 8.11794 112.078 7.69014 111.298 7.69014ZM120.683 17.3919C120.683 18.2747 120.841 18.8977 121.156 19.261C121.471 19.6277 121.969 19.811 122.65 19.811C123.148 19.811 123.699 19.6532 124.303 19.3374C124.91 19.025 125.471 18.5718 125.986 17.9776V14.0052C124.276 14.1071 122.965 14.416 122.052 14.9321C121.139 15.4516 120.683 16.2715 120.683 17.3919ZM125.986 13.0885V11.7899C125.986 10.3469 125.823 9.29778 125.498 8.6425C125.176 7.99062 124.641 7.66468 123.894 7.66468C123.131 7.66468 122.517 7.91423 122.052 8.41332C121.588 8.91581 121.272 9.76971 121.106 10.975C120.575 11.0938 120.185 11.1533 119.936 11.1533C119.289 11.1533 118.907 10.9156 118.791 10.4403C118.791 9.28589 119.281 8.36919 120.26 7.69014C121.239 7.0111 122.459 6.67158 123.919 6.67158C125.529 6.67158 126.669 7.00601 127.34 7.67487C128.014 8.34712 128.351 9.54902 128.351 11.2806V18.4614C128.351 18.8858 128.376 19.2508 128.425 19.5564L130.392 19.811C130.458 20.0657 130.458 20.3882 130.392 20.7787C129.214 20.8296 127.961 20.9484 126.633 21.1352C126.5 20.9994 126.417 20.8296 126.384 20.6259L126.259 18.8689C124.882 20.4816 123.347 21.2879 121.654 21.2879C120.608 21.2879 119.79 20.9824 119.199 20.3712C118.612 19.7601 118.318 18.9368 118.318 17.9012C118.318 16.3394 119.01 15.1596 120.394 14.3617C121.782 13.5639 123.646 13.1395 125.986 13.0885ZM135.919 7.18086L135.869 9.80366C136.284 9.02276 136.86 8.30468 137.597 7.6494C138.337 6.99752 139.039 6.67158 139.703 6.67158C140.217 6.67158 140.674 6.731 141.072 6.84983C141.205 7.07052 141.271 7.35911 141.271 7.71561C141.271 8.27582 141.155 8.83603 140.922 9.39624C140.325 9.22648 139.752 9.14159 139.205 9.14159C137.844 9.14159 136.724 9.82064 135.844 11.1787L135.794 15.6349V19.48L138.557 19.862C138.624 20.1336 138.624 20.4731 138.557 20.8805C137.512 20.8296 136.317 20.8041 134.973 20.8041C133.96 20.8041 132.757 20.8211 131.363 20.8551C131.263 20.5325 131.263 20.2015 131.363 19.862L133.33 19.5819C133.396 18.6482 133.429 17.5702 133.429 16.3479V9.37077C133.429 9.03125 133.404 8.71719 133.354 8.4286L131.388 8.17396C131.321 7.91932 131.321 7.59678 131.388 7.20633C132.533 7.12145 133.96 6.9432 135.67 6.67158C135.819 6.84134 135.902 7.0111 135.919 7.18086ZM153.24 10.4403C152.892 10.8137 152.07 10.992 150.776 10.975C150.51 8.83603 149.755 7.76654 148.51 7.76654C147.531 7.76654 146.701 8.34372 146.021 9.49809C145.34 10.6525 145 12.1718 145 14.0562C145 15.9914 145.299 17.4819 145.896 18.5276C146.494 19.57 147.39 20.0911 148.585 20.0911C149.846 20.0911 151.083 19.5649 152.294 18.5124C152.543 18.6652 152.734 18.9283 152.867 19.3018C151.655 20.6259 150.137 21.2879 148.311 21.2879C146.569 21.2879 145.141 20.6717 144.029 19.4393C142.917 18.2102 142.361 16.3989 142.361 14.0052C142.361 11.7135 142.98 9.9174 144.219 8.61704C145.453 7.32007 146.867 6.67158 148.461 6.67158C149.722 6.67158 150.834 6.99413 151.796 7.63922C152.759 8.28431 153.24 9.21799 153.24 10.4403ZM156.626 16.3479V4.2525C156.626 3.13208 156.601 2.30025 156.551 1.75702L154.585 1.50238C154.518 1.24774 154.518 0.925194 154.585 0.534745C155.697 0.449865 157.116 0.271617 158.842 0C158.991 0.16976 159.074 0.339521 159.091 0.509281C159.008 0.950658 158.966 2.32572 158.966 4.63446V9.44716C160.194 7.71561 161.671 6.84983 163.397 6.84983C164.426 6.84983 165.306 7.11296 166.036 7.63922C166.766 8.16547 167.132 9.0652 167.132 10.3384V19.48L169.148 19.862C169.214 20.1336 169.214 20.4731 169.148 20.8805C168.102 20.8296 167.04 20.8041 165.962 20.8041C165.198 20.8041 164.119 20.8211 162.725 20.8551C162.626 20.5325 162.626 20.2015 162.725 19.862L164.692 19.5819C164.758 18.6482 164.791 17.5702 164.791 16.3479V11.6116C164.791 10.4233 164.647 9.566 164.358 9.03974C164.066 8.51348 163.538 8.25035 162.775 8.25035C162.144 8.25035 161.485 8.48802 160.798 8.96335C160.108 9.43868 159.497 10.1262 158.966 11.0259V19.48L160.983 19.862C161.049 20.1336 161.049 20.4731 160.983 20.8805C159.937 20.8296 158.875 20.8041 157.796 20.8041C157.033 20.8041 155.954 20.8211 154.56 20.8551C154.46 20.5325 154.46 20.2015 154.56 19.862L156.526 19.5819C156.593 18.6482 156.626 17.5702 156.626 16.3479Z" fill="black"/>
</g>
</g>
</g>
</g>
<defs>
<clipPath id="clip0_32_60">
<rect width="168.96" height="21.2879" fill="white" transform="translate(0.244415)"/>
</clipPath>
<clipPath id="clip1_32_60">
<rect width="168.96" height="21.2879" fill="white" transform="translate(0.244415)"/>
</clipPath>
<clipPath id="clip2_32_60">
<rect width="168.96" height="21.2879" fill="white" transform="translate(0.244415)"/>
</clipPath>
<clipPath id="clip3_32_60">
<rect width="168.96" height="21.2879" fill="white" transform="translate(0.244415)"/>
</clipPath>
</defs>
</svg>
