<svg width="23" height="23" viewBox="0 0 23 23" fill="none" xmlns="http://www.w3.org/2000/svg">
<path d="M16.6667 14.5H15.6134L15.24 14.1625C16.84 12.4125 17.6667 10.025 17.2134 7.48749C16.5867 4.01249 13.4934 1.23749 9.76004 0.812489C4.12004 0.162489 -0.626626 4.61249 0.0667073 9.89999C0.520041 13.4 3.48004 16.3 7.18671 16.8875C9.89337 17.3125 12.44 16.5375 14.3067 15.0375L14.6667 15.3875V16.375L20.3334 21.6875C20.88 22.2 21.7734 22.2 22.32 21.6875C22.8667 21.175 22.8667 20.3375 22.32 19.825L16.6667 14.5ZM8.66671 14.5C5.34671 14.5 2.66671 11.9875 2.66671 8.87499C2.66671 5.76249 5.34671 3.24999 8.66671 3.24999C11.9867 3.24999 14.6667 5.76249 14.6667 8.87499C14.6667 11.9875 11.9867 14.5 8.66671 14.5Z" fill="white"/>
</svg>
